<svg xmlns="http://www.w3.org/2000/svg" viewBox="0 0 128 128" width="512" height="512">
  <defs>
    <radialGradient id="bgg" cx="50%" cy="38%" r="75%"><stop offset="0" stop-color="#2a1250"/><stop offset=".55" stop-color="#0c0820"/><stop offset="1" stop-color="#040309"/></radialGradient>
    <linearGradient id="floor" x1="0" y1="0" x2="0" y2="1"><stop offset="0" stop-color="#00f0ff" stop-opacity="0"/><stop offset="1" stop-color="#00f0ff" stop-opacity=".45"/></linearGradient>
  </defs>
  <rect width="128" height="128" rx="28" fill="url(#bgg)"/>
  <g stroke="url(#floor)" stroke-width=".5" opacity=".7">
    <path d="M0 96H128M0 104H128M0 113H128M0 124H128M64 88V128M44 88 24 128M84 88 104 128M24 88-8 128M104 88 136 128"/>
  </g>
  <circle cx="64" cy="58" r="44" fill="#9b5cff" opacity=".18"/>
  <svg x="14.079999999999998" y="14.079999999999998" width="99.84" height="99.84" viewBox="0 0 128 128" aria-hidden="true">
  <defs>
    <linearGradient id="rim-ai" x1="0" y1="0" x2="1" y2="1"><stop offset="0" stop-color="#ff2bd6"/><stop offset=".55" stop-color="#9b5cff"/><stop offset="1" stop-color="#00f0ff"/></linearGradient>
    <linearGradient id="core-ai" x1="0" y1="0" x2="0" y2="1"><stop offset="0" stop-color="#1a1430"/><stop offset="1" stop-color="#07050f"/></linearGradient>
    <linearGradient id="mask-ai" x1="0" y1="0" x2="1" y2="1"><stop offset="0" stop-color="#f4f1ff"/><stop offset=".45" stop-color="#b9a8ff"/><stop offset="1" stop-color="#3b2a7a"/></linearGradient>
    <filter id="blur-ai" x="-30%" y="-30%" width="160%" height="160%"><feGaussianBlur stdDeviation="4"/></filter>
    <clipPath id="clip-ai"><path d="M26 8H102L120 26V90L90 120H38L8 90V26Z"/></clipPath>
  </defs>
  <path d="M26 8H102L120 26V90L90 120H38L8 90V26Z" fill="none" stroke="url(#rim-ai)" stroke-width="8" opacity=".75" filter="url(#blur-ai)"/>
  <path d="M26 8H102L120 26V90L90 120H38L8 90V26Z" fill="url(#core-ai)"/>
  <g clip-path="url(#clip-ai)" opacity=".35" stroke="#00f0ff" stroke-width=".6">
    <path d="M8 92H120M8 104H120M8 116H120M28 84 0 128M48 84 32 128M64 84V128M80 84 96 128M100 84 128 128"/>
  </g>
  <path d="M26 8H102L120 26V90L90 120H38L8 90V26Z" fill="none" stroke="url(#rim-ai)" stroke-width="4"/>
  <path d="M30 13H98L114 29" fill="none" stroke="#fff" stroke-opacity=".35" stroke-width="1.6"/>
  <path d="M64 55.2C71.9 48.2 88.2 43.8 103.6 49C109.8 55.2 108 69.3 99.2 74.6C89.5 80.7 76.3 78.1 69.7 71C67.1 68.4 60.9 68.4 58.3 71C51.7 78.1 38.5 80.7 28.8 74.6C20 69.3 18.2 55.2 24.4 49C39.8 43.8 56.1 48.2 64 55.2Z" fill="#00f0ff" opacity=".55" filter="url(#blur-ai)" transform="translate(-3 2)"/>
  <path d="M64 55.2C71.9 48.2 88.2 43.8 103.6 49C109.8 55.2 108 69.3 99.2 74.6C89.5 80.7 76.3 78.1 69.7 71C67.1 68.4 60.9 68.4 58.3 71C51.7 78.1 38.5 80.7 28.8 74.6C20 69.3 18.2 55.2 24.4 49C39.8 43.8 56.1 48.2 64 55.2Z" fill="#ff2bd6" opacity=".55" filter="url(#blur-ai)" transform="translate(3 -1)"/>
  <path d="M64 55.2C71.9 48.2 88.2 43.8 103.6 49C109.8 55.2 108 69.3 99.2 74.6C89.5 80.7 76.3 78.1 69.7 71C67.1 68.4 60.9 68.4 58.3 71C51.7 78.1 38.5 80.7 28.8 74.6C20 69.3 18.2 55.2 24.4 49C39.8 43.8 56.1 48.2 64 55.2Z" fill="url(#mask-ai)" stroke="#12061f" stroke-width="2.4"/>
  <ellipse cx="43.8" cy="62" rx="9.2" ry="5" transform="rotate(12 43.8 62)" fill="#07050f"/>
  <ellipse cx="84.2" cy="62" rx="9.2" ry="5" transform="rotate(-12 84.2 62)" fill="#07050f"/>
  <ellipse cx="43.8" cy="62" rx="6" ry="2.4" transform="rotate(12 43.8 62)" fill="#00f0ff"/>
  <ellipse cx="84.2" cy="62" rx="6" ry="2.4" transform="rotate(-12 84.2 62)" fill="#00f0ff"/>
  <path d="M34 50C44 46 54 47 60 52" fill="none" stroke="#fff" stroke-width="2" stroke-linecap="round" opacity=".8"/>
  <rect x="16" y="66" width="96" height="2" fill="#fcee0a" opacity=".75"/>
  <path d="M50 96H78" stroke="#ff2bd6" stroke-width="4" stroke-linecap="square"/>
  <path d="M56 104H72" stroke="#00f0ff" stroke-width="3" stroke-linecap="square"/>
</svg>
</svg>